<svg width="33" height="33" viewBox="0 0 33 33" fill="none" xmlns="http://www.w3.org/2000/svg">
<path d="M16.5 6.53125C16.0937 6.53125 15.6914 6.61127 15.316 6.76675C14.9407 6.92222 14.5996 7.15011 14.3124 7.43739C14.0251 7.72467 13.7972 8.06572 13.6417 8.44107C13.4862 8.81642 13.4062 9.21872 13.4062 9.625C13.4062 10.0313 13.4862 10.4336 13.6417 10.8089C13.7972 11.1843 14.0251 11.5253 14.3124 11.8126C14.5996 12.0999 14.9407 12.3278 15.316 12.4833C15.6914 12.6387 16.0937 12.7188 16.5 12.7188C17.3205 12.7188 18.1074 12.3928 18.6876 11.8126C19.2678 11.2324 19.5937 10.4455 19.5937 9.625C19.5937 8.80449 19.2678 8.01758 18.6876 7.43739C18.1074 6.8572 17.3205 6.53125 16.5 6.53125ZM11.3437 9.625C11.3437 8.25748 11.887 6.94597 12.8539 5.97898C13.8209 5.012 15.1324 4.46875 16.5 4.46875C17.8675 4.46875 19.179 5.012 20.146 5.97898C21.113 6.94597 21.6562 8.25748 21.6562 9.625C21.6562 10.9925 21.113 12.304 20.146 13.271C19.179 14.238 17.8675 14.7812 16.5 14.7812C15.1324 14.7812 13.8209 14.238 12.8539 13.271C11.887 12.304 11.3437 10.9925 11.3437 9.625ZM12.8067 17.6261C12.9882 17.7609 13.222 17.919 13.5011 18.0758C14.2065 18.4745 15.2405 18.887 16.4986 18.887C17.7567 18.887 18.7921 18.4745 19.4975 18.0758C19.7766 17.919 20.0103 17.7609 20.1918 17.6261C20.4503 17.6949 20.7066 17.771 20.9605 17.8544L22.2805 18.2875C23.2705 18.6134 24.0185 19.404 24.2852 20.3816L24.8311 24.3196C24.9342 25.0676 24.5423 25.6107 23.9978 25.74C22.5582 26.0837 20.1313 26.4688 16.5 26.4688C12.8686 26.4688 10.4403 26.0837 9.00072 25.74C8.45759 25.6107 8.06572 25.0676 8.16747 24.3196L8.71334 20.3816C8.84898 19.8941 9.10315 19.4478 9.45319 19.0824C9.80323 18.717 10.2383 18.4439 10.7195 18.2875L12.0395 17.8544C12.2925 17.7719 12.5482 17.6958 12.8067 17.6261ZM13.783 15.763L13.3828 15.3684L12.8301 15.4949C12.3479 15.6049 11.8694 15.7383 11.3946 15.895L10.0746 16.3281C9.25457 16.5947 8.51523 17.0642 7.92531 17.6931C7.33538 18.322 6.914 19.0898 6.70034 19.9251L6.68659 19.9801L6.12559 24.0364C5.90422 25.6369 6.76084 27.3268 8.52359 27.7461C10.1323 28.1298 12.7201 28.5312 16.4986 28.5312C20.2785 28.5312 22.8662 28.1298 24.475 27.7475C26.2377 27.3267 27.0957 25.6369 26.8743 24.0378L26.312 19.9815L26.2982 19.9265C26.0846 19.0907 25.6631 18.3225 25.0729 17.6934C24.4828 17.0643 23.743 16.5946 22.9226 16.3281L21.604 15.895C21.1301 15.7392 20.6516 15.6063 20.1685 15.4963L19.6157 15.3684L19.217 15.7616L19.2156 15.763C19.1624 15.8114 19.1074 15.8578 19.0506 15.9019C18.8733 16.0427 18.6848 16.1687 18.4868 16.2786C17.8823 16.628 17.1981 16.816 16.5 16.8245C15.8018 16.816 15.1176 16.628 14.5131 16.2786C14.2533 16.1319 14.0078 15.9591 13.783 15.763Z" fill="white"/>
</svg>
